<?xml version="1.0" standalone="no"?>
<!DOCTYPE svg PUBLIC "-//W3C//DTD SVG 20010904//EN"
 "http://www.w3.org/TR/2001/REC-SVG-20010904/DTD/svg10.dtd">
<svg version="1.0" xmlns="http://www.w3.org/2000/svg"
 width="142.000000pt" height="36.000000pt" viewBox="0 0 142.000000 36.000000"
 preserveAspectRatio="xMidYMid meet">

<g transform="translate(0.000000,36.000000) scale(0.100000,-0.100000)"
fill="#000000" stroke="none">
<path d="M0 180 l0 -180 710 0 710 0 0 180 0 180 -710 0 -710 0 0 -180z m204
114 c19 -7 31 -66 18 -90 -6 -11 -5 -25 4 -43 16 -30 18 -71 4 -71 -5 0 -10
12 -10 28 0 15 -5 34 -10 42 -7 11 -10 6 -10 -20 0 -24 -3 -31 -9 -21 -9 14
-15 181 -7 181 2 0 11 -3 20 -6z m890 0 c19 -7 31 -66 18 -90 -6 -11 -5 -25 4
-43 16 -30 18 -71 4 -71 -5 0 -10 12 -10 28 0 15 -5 34 -10 42 -7 11 -10 6
-10 -20 0 -24 -3 -31 -9 -21 -9 14 -15 181 -7 181 2 0 11 -3 20 -6z m-81 -11
c-8 -3 -13 -23 -13 -49 0 -35 4 -44 18 -45 15 -1 15 -2 -1 -6 -16 -4 -18 -13
-15 -49 2 -24 0 -44 -4 -44 -4 0 -8 45 -10 100 -3 95 -2 100 17 99 11 0 14 -3
8 -6z m-907 -19 c-25 -25 -20 -174 5 -158 14 8 11 62 -3 67 -7 3 -8 6 -3 6 26
2 38 -17 31 -53 -5 -27 -12 -36 -27 -36 -27 0 -38 34 -33 108 4 70 8 82 30 82
14 0 13 -2 0 -16z m212 -26 c18 -73 26 -152 15 -145 -6 4 -14 32 -18 63 -9 76
-25 115 -24 59 2 -87 -1 -125 -11 -125 -6 0 -10 26 -10 58 0 125 27 175 48 90z
m91 30 c11 -10 13 -10 7 0 -4 6 -3 12 2 12 5 0 12 -19 15 -42 4 -24 9 -64 13
-91 9 -67 -10 -60 -29 10 l-15 58 -1 -64 c-1 -93 -12 -68 -17 38 -4 91 0 102
25 79z m110 0 c11 -10 13 -10 7 0 -4 6 -3 12 2 12 5 0 12 -19 15 -42 4 -24 9
-64 13 -91 9 -67 -10 -60 -29 10 l-15 58 -1 -64 c-1 -93 -12 -68 -17 38 -4 91
0 102 25 79z m148 -2 c-3 -7 -9 -50 -12 -95 -4 -44 -12 -81 -17 -81 -5 0 -7
21 -3 51 6 44 3 56 -19 90 -26 39 -20 57 7 19 15 -22 27 -17 27 12 0 10 5 18
11 18 6 0 9 -6 6 -14z m541 -84 c2 -76 0 -92 -12 -92 -22 0 -27 14 -31 83 -3
68 8 111 27 105 9 -3 14 -34 16 -96z m88 82 c-25 -25 -20 -174 5 -158 14 8 11
62 -3 67 -7 3 -8 6 -3 6 26 2 38 -17 31 -53 -5 -27 -12 -36 -27 -36 -27 0 -38
34 -33 108 4 70 8 82 30 82 14 0 13 -2 0 -16z m-465 -34 c-8 -31 -6 -45 7 -42
7 1 12 -8 12 -21 0 -13 4 -27 10 -33 6 -6 -4 -10 -31 -11 -46 -2 -58 14 -40
54 9 19 9 29 0 39 -15 18 -2 36 24 32 14 -2 21 -9 18 -18z"/>
<path d="M202 240 c0 -19 2 -27 5 -17 2 9 2 25 0 35 -3 9 -5 1 -5 -18z"/>
<path d="M1092 240 c0 -19 2 -27 5 -17 2 9 2 25 0 35 -3 9 -5 1 -5 -18z"/>
<path d="M1180 186 c0 -36 5 -68 11 -71 7 -5 9 15 8 59 -1 37 -6 69 -11 72 -4
3 -8 -24 -8 -60z"/>
<path d="M800 229 c0 -5 5 -7 10 -4 6 3 10 8 10 11 0 2 -4 4 -10 4 -5 0 -10
-5 -10 -11z"/>
<path d="M800 151 c0 -12 6 -21 16 -21 9 0 14 7 12 17 -5 25 -28 28 -28 4z"/>
</g>
</svg>
